<svg viewBox="0 0 36 36" fill="none" xmlns="http://www.w3.org/2000/svg">
<path d="M25.426 4.49725C24.3422 4.49725 23.269 4.71077 22.2678 5.12562C21.2666 5.54046 20.3569 6.1485 19.5907 6.91499L18.0007 8.50499L16.4106 6.91499C14.863 5.36745 12.764 4.49806 10.5753 4.49806C8.3867 4.49806 6.2877 5.36745 4.7401 6.91499C3.1925 8.46253 2.32306 10.5614 2.32306 12.75C2.32306 14.9385 3.1925 17.0375 4.7401 18.585M33.0507 9.59196C33.4655 10.5931 33.679 11.6663 33.679 12.75C33.679 13.8337 33.4655 14.9068 33.0507 15.908C32.6358 16.9092 32.0277 17.8189 31.2612 18.585L29.6711 20.175L18.0007 31.845L12.1654 26.01" stroke="#334AC0" stroke-width="3" stroke-linecap="round" stroke-linejoin="round"/>
</svg>
