<svg width="670" height="712" viewBox="0 0 670 712" fill="none" xmlns="http://www.w3.org/2000/svg">
<g clip-path="url(#clip0)">
<path d="M553.5 688.556C538.106 688.556 523.413 688.851 509.961 689.387C509.983 689.278 509.996 689.167 510 689.056C510 684.389 493.97 680.125 467.534 676.871C545.389 672.643 597.578 664.881 597.578 656.003C597.578 642.606 478.753 631.746 332.175 631.746C185.598 631.746 66.7733 642.606 66.7733 656.003C66.7733 658.501 70.9103 660.911 78.5847 663.179C32.8588 664.732 0 669.015 0 674.056C0 680.407 52.1588 685.556 116.5 685.556C137.097 685.556 156.44 685.028 173.229 684.102C169.175 685.679 167 687.34 167 689.056C167 699.273 243.783 707.556 338.5 707.556C377.853 707.556 414.103 706.125 443.044 703.721C458.545 708.275 502.14 711.556 553.5 711.556C617.841 711.556 670 706.407 670 700.056C670 693.705 617.841 688.556 553.5 688.556Z" fill="#3F3D56"/>
<path d="M96.0392 622.111C102.746 646.902 125.716 662.255 125.716 662.255C125.716 662.255 137.814 637.415 131.108 612.625C124.401 587.834 101.43 572.481 101.43 572.481C101.43 572.481 89.3329 597.321 96.0392 622.111Z" fill="#3F3D56"/>
<path d="M105.894 616.784C124.296 634.697 126.544 662.235 126.544 662.235C126.544 662.235 98.9553 660.729 80.553 642.815C62.1507 624.901 59.903 597.363 59.903 597.363C59.903 597.363 87.4913 598.87 105.894 616.784Z" fill="#6C63FF"/>
<path d="M337.583 89.5039C337.583 89.5039 339.694 91.9242 336.076 96.6071C332.457 101.29 335.379 111.451 342.254 111.71C349.129 111.969 352.463 114.849 350.805 118.642C349.148 122.434 347.156 131.447 354.643 130.077C362.13 128.706 364.496 131.687 363.171 133.978C361.845 136.269 366.509 129.422 366.509 129.422C366.509 129.422 370.681 135.637 375.802 131.286C380.923 126.936 382.959 87.4949 372.519 86.8264C362.08 86.1579 337.583 89.5039 337.583 89.5039Z" fill="#2F2E41"/>
<path d="M390.505 277.066L392.884 293.718H403.59L400.021 274.687L390.505 277.066Z" fill="#EB9D9D"/>
<path d="M404.779 283.608C404.779 283.608 419.053 296.692 415.484 297.882C411.916 299.071 398.832 313.345 396.453 314.534C394.325 315.598 371.474 322.86 375.042 314.534C378.611 306.208 386.937 301.45 386.937 301.45L389.316 287.176L404.779 283.608Z" fill="#F2F2F2"/>
<path opacity="0.1" d="M404.779 283.608C404.779 283.608 419.053 296.692 415.484 297.882C411.916 299.071 398.832 313.345 396.453 314.534C394.325 315.598 371.474 322.86 375.042 314.534C378.611 306.208 386.937 301.45 386.937 301.45L389.316 287.176L404.779 283.608Z" fill="black"/>
<path d="M404.779 264.576L407.158 281.229H417.863L414.295 262.197L404.779 264.576Z" fill="#EB9D9D"/>
<path d="M360.047 220.372L375.637 168.824C375.637 168.824 349.469 145.035 367.311 137.898C385.153 130.761 389.911 166.445 389.911 166.445L383.963 228.297H360.174L360.047 220.372Z" fill="#FFB8B8"/>
<path d="M396.453 182.503C396.453 182.503 365.711 221.933 370.376 227.791C375.042 233.65 383.369 269.334 383.369 269.334C383.369 269.334 382.179 283.608 386.937 283.608C391.695 283.608 403.59 281.229 403.59 277.661C403.59 274.092 392.884 228.892 392.884 228.892L423.811 188.45L396.453 182.503Z" fill="#6C63FF"/>
<path d="M398.832 184.882L429.758 168.229C429.758 168.229 451.168 178.934 445.221 188.45C439.274 197.966 411.916 222.945 411.916 222.945C411.916 222.945 420.242 263.387 419.053 264.576C417.863 265.766 404.779 270.524 401.211 269.334C397.642 268.145 378.611 221.755 383.369 219.376C388.126 216.997 403.59 192.019 403.59 192.019L398.832 184.882Z" fill="#6C63FF"/>
<path d="M314.379 621.418C314.379 621.418 335.79 634.502 338.169 634.502C340.548 634.502 372.663 642.828 358.39 648.775C344.116 654.723 289.4 646.396 290.59 642.828C291.779 639.26 290.59 617.849 292.969 617.849C295.348 617.849 314.379 621.418 314.379 621.418Z" fill="#2F2E41"/>
<path d="M338.169 638.07C338.169 638.07 359.579 651.154 361.958 651.154C364.337 651.154 396.453 659.481 382.179 665.428C367.905 671.375 313.19 663.049 314.379 659.481C315.569 655.912 314.379 634.502 316.758 634.502C319.137 634.502 338.169 638.07 338.169 638.07Z" fill="#2F2E41"/>
<path d="M315.569 385.902C315.569 385.902 319.137 403.744 325.084 416.829C331.032 429.913 323.895 491.765 320.327 501.281C316.758 510.797 282.264 623.797 292.969 624.986C303.674 626.176 325.084 624.986 325.084 624.986L359.579 516.744L353.632 371.629L315.569 385.902Z" fill="#575A88"/>
<path opacity="0.1" d="M315.569 385.902C315.569 385.902 319.137 403.744 325.084 416.829C331.032 429.913 323.895 491.765 320.327 501.281C316.758 510.797 282.264 623.797 292.969 624.986C303.674 626.176 325.084 624.986 325.084 624.986L359.579 516.744L353.632 371.629L315.569 385.902Z" fill="black"/>
<path d="M322.706 387.092C322.706 387.092 327.463 419.208 338.169 426.344C348.874 433.481 345.305 440.618 345.305 440.618L340.548 503.66C340.548 503.66 294.158 617.849 308.432 632.123C322.706 646.397 335.79 640.449 341.737 639.26C347.684 638.07 358.39 613.091 352.442 605.955C346.495 598.818 364.337 555.997 369.095 548.86C373.853 541.723 369.095 532.207 375.042 529.828C380.99 527.449 394.074 511.986 394.074 501.281C394.074 490.576 410.726 376.387 400.021 369.25C389.316 362.113 320.696 383.98 320.696 383.98L322.706 387.092Z" fill="#575A88"/>
<path d="M300.106 220.566C314.558 220.566 326.274 208.85 326.274 194.398C326.274 179.945 314.558 168.229 300.106 168.229C285.653 168.229 273.937 179.945 273.937 194.398C273.937 208.85 285.653 220.566 300.106 220.566Z" fill="#FFB8B8"/>
<path d="M359.579 120.65C371.404 120.65 380.99 111.065 380.99 99.2399C380.99 87.4152 371.404 77.8294 359.579 77.8294C347.754 77.8294 338.169 87.4152 338.169 99.2399C338.169 111.065 347.754 120.65 359.579 120.65Z" fill="#EB9D9D"/>
<path d="M317.948 194.398C317.948 194.398 332.221 220.566 339.358 220.566C346.495 220.566 310.811 247.924 310.811 247.924C310.811 247.924 298.916 213.429 296.537 212.24C294.158 211.05 317.948 194.398 317.948 194.398Z" fill="#FFB8B8"/>
<path d="M322.706 218.187C322.706 218.187 291.779 228.892 292.969 232.461C294.158 236.029 284.642 244.355 284.642 247.924C284.642 251.492 282.264 283.608 296.537 309.776C310.811 335.945 333.411 354.976 322.706 366.871C312 378.766 295.348 398.987 313.19 398.987C331.032 398.987 359.579 372.818 385.747 382.334C411.916 391.85 405.969 356.166 405.969 356.166C405.969 356.166 409.537 328.808 402.4 320.481C395.263 312.155 370.284 252.682 370.284 245.545C370.284 238.408 346.495 211.05 340.548 211.05C334.6 211.05 322.706 218.187 322.706 218.187Z" fill="#8985A8"/>
<path d="M365.526 112.324C365.526 112.324 375.212 130.74 375.722 134.021C376.232 137.303 392.884 112.324 392.884 112.324L373.853 99.2399L365.526 112.324Z" fill="#EB9D9D"/>
<path d="M369.095 126.598L389.316 105.187L413.105 115.893C413.105 115.893 435.292 164.661 436.688 168.229C438.084 171.798 401.211 188.45 397.642 188.45C394.074 188.45 369.095 151.577 369.095 151.577C369.095 151.577 363.148 133.735 369.095 126.598Z" fill="#F2F2F2"/>
<path d="M359.579 155.145V176.555H373.853L369.158 155.145H359.579Z" fill="#EB9D9D"/>
<path d="M367.723 171.203C365.919 171.178 364.151 171.704 362.654 172.711C361.157 173.717 360.002 175.156 359.344 176.835C358.414 179.35 358.73 181.993 363.148 183.098C372.663 185.477 373.853 183.098 373.853 183.098C373.853 183.098 390.372 180.719 386.87 175.961C383.369 171.203 373.853 171.203 373.853 171.203H367.723Z" fill="#EB9D9D"/>
<path d="M419.053 274.092C419.053 274.092 433.326 287.176 429.758 288.366C426.19 289.555 413.105 303.829 410.726 305.018C408.599 306.082 385.748 313.345 389.316 305.018C392.884 296.692 401.211 291.934 401.211 291.934L403.59 277.661L419.053 274.092Z" fill="#F2F2F2"/>
<path d="M290.782 174.254C292.419 173.295 294.353 172.1 294.399 170.203C294.357 169.506 294.111 168.837 293.694 168.277C293.276 167.718 292.704 167.292 292.048 167.053C290.728 166.598 289.331 166.409 287.937 166.499C287.403 166.472 286.867 166.525 286.348 166.657C284.993 167.075 284.213 168.45 283.146 169.384C281.596 170.739 279.462 171.138 277.469 171.655C274.13 172.521 270.927 173.848 267.954 175.598C267.367 175.895 266.853 176.318 266.448 176.837C265.981 177.792 265.772 178.854 265.843 179.915C265.575 183.951 263.155 187.464 261.349 191.083C259.543 194.702 258.356 199.21 260.476 202.655C261.317 203.726 262.103 204.841 262.829 205.994C264.331 209.125 262.456 212.98 263.542 216.279C264.027 217.577 264.807 218.746 265.819 219.694C267.908 221.797 270.481 223.356 273.314 224.232C276.017 225.064 279.37 225.618 280.429 228.241C280.883 229.366 280.791 230.692 281.431 231.722C282.225 232.998 283.861 233.411 285.339 233.683C286.998 234.062 288.706 234.186 290.402 234.049C291.251 233.976 292.075 233.731 292.826 233.329C293.577 232.927 294.238 232.377 294.77 231.711C295.249 230.772 295.843 229.897 296.538 229.104C298.26 227.664 300.876 228.801 303.088 228.42C303.984 228.251 304.814 227.829 305.479 227.205C306.144 226.581 306.617 225.78 306.842 224.896C306.903 223.955 307.163 223.037 307.604 222.203C308.978 220.446 312.592 221.686 313.499 219.648C314.088 218.324 312.856 216.925 311.663 216.1C309.72 214.755 307.546 213.721 305.803 212.125C304.06 210.529 302.77 208.141 303.316 205.841C304.134 202.392 308.637 200.494 308.786 196.952C308.872 194.923 307.414 193.143 305.782 191.935C304.149 190.727 302.258 189.859 300.799 188.446C299.733 187.414 298.928 186.118 297.769 185.191C295.673 183.515 292.804 183.312 290.134 183.038C288.701 182.891 282.988 182.229 283.213 180.047C283.399 178.235 289.328 175.106 290.782 174.254Z" fill="#2F2E41"/>
<path d="M369.095 125.408C369.095 125.408 356.011 130.166 356.011 136.113C356.011 142.061 350.063 161.092 356.011 161.092C361.958 161.092 373.853 156.527 373.853 156.527L369.095 125.408Z" fill="#F2F2F2"/>
<path d="M365.526 211.05C365.526 211.05 400.021 199.155 401.211 199.155C402.4 199.155 419.053 189.64 417.863 186.071L413.105 156.335C413.105 156.335 394.074 117.082 407.158 117.082C420.242 117.082 427.379 148.008 427.379 148.008C427.379 148.008 455.926 201.534 440.463 213.429C425 225.324 360.769 246.734 357.2 243.166C353.632 239.597 365.526 211.05 365.526 211.05Z" fill="#FFB8B8"/>
<path d="M398.832 133.735L406.861 141.472L396.453 151.577C396.453 151.577 382.179 145.629 383.369 149.198C384.558 152.766 391.695 163.471 396.453 163.471C401.211 163.471 425.973 148.008 426.081 143.25C426.189 138.492 410.726 121.84 407.158 120.65C403.59 119.461 398.832 133.735 398.832 133.735Z" fill="#EB9D9D"/>
<path d="M383.735 125.443C383.735 125.443 401.211 140.871 403.59 140.871C405.969 140.871 410.295 117.691 410.295 117.691C410.295 117.691 396.195 108.504 390.971 111.009C385.747 113.514 383.735 125.443 383.735 125.443Z" fill="#F2F2F2"/>
<path d="M322.706 225.324C322.706 225.324 322.706 208.671 358.39 208.671H373.853L366.716 247.924L342.927 255.061L322.706 225.324Z" fill="#8985A8"/>
<path d="M400.653 90.5622C397.156 90.5454 393.662 90.3299 390.19 89.917C387.462 83.3261 383.989 77.7958 380.231 75.734C377.564 73.3477 373.451 71.6135 370.224 70.2424C362.298 66.8754 349.105 68.9755 348.334 72.8047C332.738 80.2565 336.679 93.3431 336.679 93.3431C339.102 98.4653 344.539 96.1952 349.151 93.8755C350.328 97.5886 353.11 100.74 357.093 100.89C364.709 101.176 368.402 104.366 366.566 108.568C364.73 112.77 362.523 122.754 370.817 121.236C379.111 119.718 381.733 123.02 380.264 125.558C378.796 128.095 383.963 120.511 383.963 120.511C383.963 120.511 388.584 127.396 394.257 122.576C394.831 122.024 395.24 121.323 395.439 120.552C398.077 121.687 400.166 122.118 401.353 121.587C408.148 118.547 403.928 111.408 403.928 111.408C403.928 111.408 412.999 110.016 410.076 110.247C407.153 110.478 405.304 106.689 410.25 99.8602C415.196 93.0313 405.236 90.7172 400.653 90.5622Z" fill="#2F2E41"/>
<path d="M354.636 85.2087L351.25 84.0819L347.87 94.2395L351.256 95.3663L354.636 85.2087Z" fill="#6C63FF"/>
</g>
<defs>
<clipPath id="clip0">
<rect width="670" height="711.556" fill="white"/>
</clipPath>
</defs>
</svg>
