<svg width="326" height="306" viewBox="0 0 326 306" fill="none" xmlns="http://www.w3.org/2000/svg">
<path opacity="0.18" d="M236.879 119.768C243.646 133.236 247.439 149.791 257.697 159.155C272.098 172.257 293.954 166.265 307.931 180.047C314.388 186.415 318.091 196.074 321.066 205.621C325.406 219.576 328.545 235.715 323.126 249.071C316.865 264.499 301.695 270.4 287.98 272.959C268.984 276.565 249.564 276.9 230.936 282.842C223.507 285.218 216.224 288.468 208.712 290.205C201.201 291.942 193.649 292.114 186.08 291.952C149.499 291.146 113.351 281.981 79.4397 264.915C52.3607 251.275 25.7803 231.256 11.2314 199.761C1.72737 179.045 -1.89688 154.961 0.940919 131.377C2.52659 118.478 6.11477 105.813 12.2286 95.2299C20.8026 80.4217 33.9294 70.2651 47.8571 64.4353C61.7848 58.6054 76.5871 56.696 91.2749 55.7311C121.591 53.6998 159.843 50.3177 187.919 66.9033C196.289 71.8597 202.435 78.6138 209.17 86.2718C218.831 97.2003 229.833 105.813 236.879 119.768Z" fill="#314BCE"/>
<path opacity="0.43" d="M207.865 4.06549H39.0932C32.8986 4.06549 27.877 9.08713 27.877 15.2816V283.94C27.877 290.134 32.8986 295.156 39.0932 295.156H207.865C214.059 295.156 219.081 290.134 219.081 283.94V15.2816C219.081 9.08713 214.059 4.06549 207.865 4.06549Z" fill="#314BCE"/>
<path opacity="0.34" d="M214.104 203.605L215.376 223.096C212.825 222.129 210.485 220.677 208.485 218.821C197.442 209.417 189.972 196.623 182.867 184.033C176.828 173.292 170.915 162.493 165.127 151.636C163.01 147.677 160.812 143.575 157.28 140.797C160.608 138.914 164.771 137.845 168.231 139.473C172.455 141.458 174.043 146.486 176.242 150.598C178.532 154.883 181.819 158.537 184.74 162.415C188.52 167.431 191.7 172.873 194.216 178.628C194.648 179.784 195.252 180.868 196.007 181.844C197.172 182.982 198.558 183.869 200.078 184.45C204.691 186.599 209.171 189.022 213.493 191.707C215.015 192.561 216.389 193.653 217.564 194.943C218.992 196.721 219.671 198.984 219.457 201.254C219.111 205.254 217.208 203.371 214.104 203.605Z" fill="#314BCE"/>
<path opacity="0.34" d="M61.4135 195.86C59.5306 196.277 57.5153 196.786 56.3245 198.262C55.1337 199.737 55.3067 202.506 57.1387 203.086C57.6653 203.21 58.2068 203.258 58.7469 203.228C66.5839 203.401 71.4897 212.45 79.1028 214.19C81.8555 214.682 84.6821 214.571 87.3877 213.864C89.8047 213.487 92.101 212.554 94.095 211.137C95.4792 210.017 96.8227 208.389 98.5937 208.562C100.629 208.755 101.566 211.116 102.024 213.101C106.166 231.136 105.077 249.905 103.886 268.378C103.499 274.484 103.367 280.856 103.255 286.993C103.255 289.161 103.255 291.522 104.568 293.242C106.431 295.634 109.942 295.746 112.975 295.634C114.929 295.553 117.107 295.38 118.451 293.945C119.794 292.51 119.815 290.535 119.825 288.673C119.947 269.192 119.174 249.738 117.504 230.312C117.057 225.172 118.339 212.684 118.278 207.523C118.227 202.088 120.049 193.692 120.995 188.338C123.377 174.761 125.749 172.186 127.784 158.557C129.647 159.91 131.751 160.894 133.983 161.458C136.242 161.875 138.848 161.254 140.15 159.361C140.94 157.953 141.324 156.354 141.26 154.74C141.445 150.585 141.39 146.422 141.097 142.272C141.101 141.295 140.867 140.33 140.415 139.463C139.737 138.554 138.821 137.85 137.769 137.428L124.069 130.608C122.632 129.733 120.997 129.233 119.316 129.153C117.454 129.362 115.727 130.224 114.441 131.586C106.96 138.578 106.919 150.13 105.901 160.318C105.047 168.888 103.041 177.559 98.3189 184.745C93.5963 191.931 85.7898 197.508 77.1792 197.875C71.8451 198.17 66.502 197.487 61.4135 195.86Z" fill="#314BCE"/>
<path d="M92.7922 32.9913V83.9423C92.7922 85.4621 92.1885 86.9196 91.1139 87.9942C90.0393 89.0688 88.5818 89.6726 87.062 89.6726H49.6579C48.1382 89.6726 46.6807 89.0688 45.606 87.9942C44.5314 86.9196 43.9277 85.4621 43.9277 83.9423V32.9913C43.9384 31.4777 44.5466 30.0296 45.6197 28.9621C46.6929 27.8947 48.1443 27.2943 49.6579 27.2917H87.062C88.5757 27.2943 90.027 27.8947 91.1002 28.9621C92.1734 30.0296 92.7815 31.4777 92.7922 32.9913V32.9913Z" fill="#314BCE"/>
<path d="M90.3088 206.892C89.6777 207.834 88.7816 208.567 87.7338 208.999C86.6798 209.225 85.5829 209.136 84.5786 208.745C76.8027 206.404 69.7814 202.054 64.2226 196.134C64.9389 194.544 65.8779 193.063 67.0114 191.737C70.6256 193.203 74.4637 194.039 78.3599 194.211C78.8904 194.28 79.4294 194.187 79.9069 193.946C80.2307 193.698 80.492 193.377 80.6703 193.01C82.5023 189.895 84.1986 186.706 85.7592 183.442C87.7948 179.117 89.8304 174.394 93.9016 171.86C94.2623 171.593 94.695 171.44 95.1434 171.422C95.6077 171.482 96.0455 171.672 96.4054 171.972C99.4588 174.007 102.879 176.348 104.283 179.931C105.494 182.984 104.181 184.939 102.604 187.554C98.5632 194.139 95.1943 200.837 90.3088 206.892Z" fill="#314BCE"/>
<path d="M105.433 237.253C102.624 236.46 100.68 233.762 99.927 230.933C99.1738 228.103 98.0135 219.737 98.1967 216.836C99.0732 202.922 98.7122 188.957 97.1179 175.107C97.0263 174.333 114.227 169.814 115.845 170.842C119.703 173.285 116.537 185.152 115.927 188.979C113.576 203.656 110.186 223.198 105.433 237.253Z" fill="#314BCE"/>
<path d="M195.895 39.7393H110.278V45.4492H195.895V39.7393Z" fill="#314BCE"/>
<path d="M172.669 54.3651H110.278V60.075H172.669V54.3651Z" fill="#314BCE"/>
<path d="M195.895 67.566H110.278V73.2758H195.895V67.566Z" fill="#314BCE"/>
<path d="M186.033 82.1917H110.278V87.9016H186.033V82.1917Z" fill="#314BCE"/>
<path d="M195.722 100.207H44.4671V105.917H195.722V100.207Z" fill="#314BCE"/>
<path d="M163.112 114.833H44.4671V120.542H163.112V114.833Z" fill="#314BCE"/>
<path d="M195.722 128.023H44.4671V133.733H195.722V128.023Z" fill="#314BCE"/>
<path d="M177.748 142.649H44.4671V148.359H177.748V142.649Z" fill="#314BCE"/>
<path d="M222.521 217.376L215.396 220.948L163.855 138.771C166.908 137.306 168.476 136.736 170.98 134.557L222.521 217.376Z" fill="#314BCE"/>
<path d="M222.562 217.813L215.437 221.386L163.936 139.25C166.99 137.794 168.557 137.214 171.061 135.036L222.562 217.813Z" fill="url(#paint0_linear)"/>
<path d="M148.588 69.1639C141.287 69.1639 134.15 71.3287 128.08 75.3846C122.009 79.4405 117.278 85.2053 114.483 91.9501C111.689 98.695 110.957 106.117 112.381 113.278C113.805 120.438 117.319 127.016 122.481 132.179C127.643 137.342 134.22 140.859 141.38 142.284C148.54 143.71 155.962 142.98 162.708 140.188C169.454 137.395 175.22 132.665 179.277 126.596C183.335 120.527 185.502 113.39 185.504 106.09C185.504 96.2981 181.615 86.9074 174.692 79.9828C167.769 73.0582 158.38 69.1666 148.588 69.1639ZM147.845 136.257C141.882 136.259 136.052 134.493 131.093 131.181C126.134 127.87 122.269 123.162 119.985 117.654C117.702 112.145 117.104 106.083 118.266 100.235C119.428 94.3862 122.298 89.0135 126.514 84.7963C130.73 80.5791 136.101 77.7069 141.95 76.5428C147.798 75.3788 153.86 75.9752 159.369 78.2566C164.879 80.5381 169.588 84.4022 172.901 89.3601C176.214 94.318 177.982 100.147 177.982 106.11C177.982 114.097 174.813 121.757 169.17 127.409C163.527 133.062 155.872 136.244 147.886 136.257H147.845Z" fill="#314BCE"/>
<path d="M148.588 69.1639C141.287 69.1639 134.15 71.3287 128.08 75.3846C122.009 79.4405 117.278 85.2053 114.483 91.9501C111.689 98.695 110.957 106.117 112.381 113.278C113.805 120.438 117.319 127.016 122.481 132.179C127.643 137.342 134.22 140.859 141.38 142.284C148.54 143.71 155.962 142.98 162.708 140.188C169.454 137.395 175.22 132.665 179.277 126.596C183.335 120.527 185.502 113.39 185.504 106.09C185.504 96.2981 181.615 86.9074 174.692 79.9828C167.769 73.0582 158.38 69.1666 148.588 69.1639ZM147.845 136.257C141.882 136.259 136.052 134.493 131.093 131.181C126.134 127.87 122.269 123.162 119.985 117.654C117.702 112.145 117.104 106.083 118.266 100.235C119.428 94.3862 122.298 89.0135 126.514 84.7963C130.73 80.5791 136.101 77.7069 141.95 76.5428C147.798 75.3788 153.86 75.9752 159.369 78.2566C164.879 80.5381 169.588 84.4022 172.901 89.3601C176.214 94.318 177.982 100.147 177.982 106.11C177.982 114.097 174.813 121.757 169.17 127.409C163.527 133.062 155.872 136.244 147.886 136.257H147.845Z" fill="url(#paint1_linear)"/>
<path opacity="0.53" d="M178.023 106.11C178.025 112.073 176.258 117.903 172.946 122.863C169.634 127.822 164.926 131.688 159.417 133.971C153.908 136.254 147.845 136.852 141.997 135.689C136.148 134.526 130.775 131.654 126.558 127.437C122.341 123.221 119.47 117.848 118.307 111.999C117.144 106.15 117.742 100.088 120.025 94.5787C122.308 89.0696 126.174 84.3613 131.133 81.0495C136.092 77.7376 141.922 75.971 147.886 75.973C155.878 75.9757 163.542 79.1517 169.193 84.8029C174.844 90.4541 178.02 98.118 178.023 106.11V106.11Z" fill="white" stroke="#314BCE" stroke-width="0.631035" stroke-miterlimit="10"/>
<path d="M234.918 160.094C234.47 160.206 233.9 160.277 233.706 160.674C233.582 160.948 233.543 161.253 233.594 161.55L234.083 167.198C234.098 168.104 234.317 168.995 234.724 169.804C235.61 171.27 237.523 171.666 239.223 171.839C240.923 172.013 242.826 172.297 243.905 173.631C244.485 174.343 244.78 175.331 245.574 175.789C246.315 176.093 247.14 176.129 247.905 175.89C248.435 175.843 248.938 175.637 249.35 175.3C249.599 174.963 249.743 174.56 249.763 174.141C249.783 173.723 249.678 173.308 249.462 172.949C249.027 172.265 248.649 171.547 248.332 170.801C247.915 169.234 248.841 167.677 249.35 166.15C249.924 164.601 250.053 162.923 249.724 161.304C249.395 159.686 248.62 158.192 247.487 156.99C246.507 156.073 245.287 155.452 243.969 155.198C242.651 154.944 241.288 155.068 240.037 155.555C237.717 156.44 237.564 159.463 234.918 160.094Z" fill="url(#paint2_linear)"/>
<path d="M238.999 150.527C238.923 150.44 238.827 150.373 238.721 150.329C238.614 150.285 238.499 150.267 238.384 150.274C238.269 150.282 238.157 150.316 238.057 150.374C237.957 150.432 237.872 150.512 237.808 150.608C237.71 150.814 237.671 151.043 237.696 151.27C237.826 152.778 238.538 154.176 239.681 155.168C240.818 156.145 242.057 156.998 243.376 157.712C244.218 158.136 244.941 158.762 245.482 159.534C246.054 160.801 246.127 162.237 245.686 163.555C245.615 163.87 245.574 164.287 245.869 164.44C246.164 164.593 246.592 164.196 246.999 164.114C247.229 164.103 247.454 164.182 247.627 164.334C247.8 164.486 247.907 164.699 247.925 164.929C247.939 165.396 247.796 165.855 247.518 166.231C247.306 166.651 246.982 167.003 246.582 167.249C246.439 167.31 246.276 167.382 246.246 167.534C246.215 167.687 246.337 167.789 246.439 167.88C246.918 168.318 247.406 168.745 247.905 169.152C248.184 169.426 248.538 169.61 248.923 169.682C249.208 169.654 249.484 169.566 249.733 169.424C249.982 169.282 250.199 169.089 250.368 168.857L253.554 165.519C253.87 165.242 254.114 164.893 254.266 164.501C254.347 164.15 254.347 163.784 254.266 163.432C254.218 162.891 254.039 162.369 253.745 161.911C253.451 161.454 253.05 161.075 252.577 160.807C252.941 160.391 253.219 159.907 253.394 159.383C253.569 158.858 253.637 158.304 253.594 157.753C253.568 156.839 253.349 155.942 252.95 155.119C252.552 154.296 251.984 153.567 251.284 152.98C249.897 152.027 248.404 151.238 246.836 150.629C245.04 149.729 243.438 148.484 242.124 146.964C241.905 146.644 241.602 146.39 241.248 146.232C240.485 145.977 239.65 146.761 239.304 147.392C238.901 148.385 238.795 149.474 238.999 150.527Z" fill="#3E3E54"/>
<path d="M230.012 187.086C229.321 187.614 228.537 188.007 227.702 188.246C226.792 188.385 225.865 188.361 224.964 188.175C218.277 187.157 211.63 185.814 205.066 184.165C204.816 184.061 204.545 184.016 204.275 184.034C204.005 184.052 203.743 184.131 203.508 184.267C203.276 184.52 203.121 184.834 203.061 185.173L201.707 190.262C201.601 190.462 201.543 190.684 201.539 190.91C201.535 191.137 201.585 191.361 201.684 191.564C201.784 191.768 201.93 191.945 202.11 192.081C202.291 192.217 202.502 192.309 202.725 192.348C208.499 194.96 214.3 197.502 220.129 199.971C221.996 200.908 224.03 201.465 226.114 201.61C227.728 201.545 229.319 201.2 230.816 200.592C235.971 198.746 240.839 196.183 245.279 192.979L258.297 205.966C260.515 208.185 263.039 210.536 266.174 210.709C268.012 210.683 269.822 210.256 271.477 209.457C275.209 207.985 278.921 206.462 282.612 204.887C283.256 204.705 283.808 204.287 284.159 203.717C284.312 203.261 284.312 202.768 284.159 202.312C283.617 200.583 282.663 199.012 281.38 197.732C274.266 189.526 266.25 182.147 257.482 175.738C255.742 174.465 253.615 172.888 251.447 172.45C249.605 172.074 247.437 173.407 245.859 174.303C242.103 176.45 238.948 179.483 235.732 182.333C233.922 184.03 232.012 185.618 230.012 187.086V187.086Z" fill="#314BCE"/>
<path d="M231.742 275.859C231.511 276.235 231.378 276.662 231.353 277.103C231.328 277.543 231.413 277.983 231.6 278.383C232.038 278.858 232.644 279.146 233.289 279.187C235.579 279.585 237.914 279.643 240.22 279.36C242.327 272.754 246.164 266.851 249.951 261.039C255.65 252.273 261.353 243.516 267.06 234.77C273.645 224.653 280.291 214.414 284.25 203.004C284.016 203.686 274.439 205.61 273.156 206.058C270.317 207.076 266.398 208.226 263.915 210.007C258.582 213.854 255.294 223.503 252.383 229.264C244.729 244.459 238.236 260.164 231.742 275.859Z" fill="#3E3E54"/>
<path d="M231.742 275.859C231.511 276.235 231.378 276.662 231.353 277.103C231.328 277.543 231.413 277.983 231.6 278.383C232.038 278.858 232.644 279.146 233.289 279.187C235.579 279.585 237.914 279.643 240.22 279.36C242.327 272.754 246.164 266.851 249.951 261.039C255.65 252.273 261.353 243.516 267.06 234.77C273.645 224.653 280.291 214.414 284.25 203.004C284.016 203.686 274.439 205.61 273.156 206.058C270.317 207.076 266.398 208.226 263.915 210.007C258.582 213.854 255.294 223.503 252.383 229.264C244.729 244.459 238.236 260.164 231.742 275.859Z" fill="url(#paint3_linear)"/>
<path d="M267.223 240.49C267.211 241.89 267.554 243.27 268.22 244.501C268.886 245.733 269.852 246.776 271.029 247.533C280.464 255.452 290.469 262.668 300.464 269.925C303.198 268.899 305.536 267.032 307.141 264.591C299.393 259.118 292.099 253.029 285.329 246.383C283.711 244.846 282.011 243.136 281.675 240.938C281.401 239.147 282.093 237.365 282.693 235.645C284.841 229.243 285.624 222.485 286.398 215.778C286.825 212.063 287.212 208.114 285.553 204.765C285.268 204.098 284.807 203.521 284.22 203.096C283.1 202.384 281.645 202.638 280.362 202.964C276.37 203.892 272.485 205.232 268.77 206.964C265.716 208.48 265.645 209.793 265.716 213.07C265.849 222.19 266.225 231.34 267.223 240.49Z" fill="#3E3E54"/>
<path d="M232.872 278.23C230.317 278.983 228.282 280.856 226.338 282.668C225.727 283.238 225.065 284.123 225.534 284.815C225.689 284.99 225.878 285.132 226.09 285.231C226.302 285.331 226.531 285.387 226.765 285.395C228.941 285.749 231.152 285.845 233.35 285.68C234.674 285.636 235.969 285.287 237.136 284.662C237.716 284.346 238.199 283.88 238.536 283.312C238.873 282.744 239.05 282.096 239.05 281.436C238.954 280.733 238.647 280.077 238.169 279.553C237.691 279.029 237.064 278.664 236.373 278.505C234.976 278.217 233.524 278.411 232.251 279.054" fill="#3E3E54"/>
<path d="M298.255 271.065C297.237 272.021 296.128 273.436 296.739 274.719C296.985 275.118 297.337 275.442 297.755 275.656C298.173 275.87 298.642 275.964 299.11 275.93C300.61 275.782 302.048 275.261 303.293 274.413C306.347 272.693 309.583 271.105 312.454 269.111C309.024 261.009 302.571 267.085 298.255 271.065Z" fill="#3E3E54"/>
<path d="M195.152 179.249C194.866 179.006 194.543 178.81 194.196 178.669C193.951 178.585 193.69 178.558 193.433 178.588C193.176 178.618 192.929 178.704 192.71 178.842C192.315 179.148 192.017 179.562 191.851 180.033C191.685 180.504 191.658 181.012 191.773 181.498C191.916 182.516 192.363 183.412 192.557 184.389C192.595 185.373 192.871 186.333 193.361 187.188C194.155 187.891 195.192 188.256 196.251 188.206C198.542 188.409 203.111 189.132 201.982 185.152C201.31 182.791 197.005 180.674 195.152 179.249Z" fill="url(#paint4_linear)"/>
<path d="M84.548 89.6726H51.4085C49.434 87.1077 52.5179 77.3775 53.5866 74.833C54.0446 73.744 61.0471 63.6373 61.4237 64.3294C59.2659 60.6144 57.0268 56.645 57.1591 52.3397C57.3117 46.9555 61.4542 42.1617 66.5635 40.4416C72.1716 38.5892 79.4285 40.9709 81.23 46.5484C81.7723 48.5052 81.849 50.5617 81.4539 52.5534C80.6341 57.442 78.3276 61.9591 74.8484 65.4896C80.141 67.1487 82.5532 73.1639 83.9068 78.5378C84.6498 81.6014 85.3012 86.5988 84.548 89.6726Z" fill="url(#paint5_linear)"/>
<path d="M121.922 120.115C121.922 121.275 121.83 122.578 120.904 123.331C120.505 123.623 120.034 123.799 119.541 123.838C119.049 123.878 118.555 123.78 118.115 123.555C117.24 123.095 116.497 122.419 115.957 121.591C115.287 120.69 114.733 119.709 114.308 118.67C113.745 117.286 113.498 115.794 113.586 114.303C113.618 113.541 113.805 112.793 114.135 112.105C114.53 111.411 115.109 110.838 115.807 110.451C116.505 110.063 117.297 109.875 118.095 109.906C119.713 109.967 121.993 111.026 121.962 112.827C121.962 115.25 121.952 117.682 121.922 120.115Z" fill="url(#paint6_linear)"/>
<path d="M118.96 127.158C118.746 127.86 118.634 128.797 119.275 129.143C119.554 129.264 119.859 129.309 120.161 129.275C121.002 129.222 121.846 129.348 122.635 129.645C123.424 129.941 124.142 130.401 124.741 130.995C125.606 132.073 126.114 133.392 126.196 134.771C126.329 136.125 126.278 137.499 126.471 138.842C126.777 140.878 131.56 144.247 131.906 143.321C132.7 141.081 132.944 138.683 132.619 136.328C132.507 135.514 132.425 134.507 133.107 134.079C133.51 133.886 133.968 133.842 134.4 133.957C135.732 134.163 137.021 134.586 138.217 135.209C137.728 136.41 139.988 147.097 139.804 149.723C139.092 160.064 126.339 151.758 124.171 150.567C123.57 150.252 122.909 149.621 123.153 149C122.634 152.878 121.922 157.01 121.403 160.888C120.955 164.206 120.446 167.687 118.471 170.394C116.848 172.43 114.707 173.991 112.273 174.913C106.858 177.203 100.242 177.397 95.4283 174.038C94.4353 173.421 93.6377 172.535 93.1281 171.483C92.7768 170.45 92.6518 169.353 92.7617 168.267C92.9893 161.336 93.8892 154.444 95.4487 147.687C96.6598 142.415 98.5021 136.929 102.624 133.438C106.553 130.161 113.85 127.738 118.96 127.158Z" fill="white"/>
<path d="M113.667 97.2857C112.005 97.2748 110.359 97.6094 108.833 98.2681C107.307 98.9269 105.934 99.8955 104.802 101.113C102.552 103.568 100.839 106.466 99.7743 109.621C98.7565 112.369 97.9219 115.27 96.1713 117.631C93.81 120.827 90.0645 122.619 86.7058 124.756C83.347 126.893 80.0494 129.845 79.5812 133.835C79.3267 136.033 80.0189 138.262 79.7542 140.451C79.4285 143.117 77.7186 145.825 78.7975 148.298C79.2155 149.19 79.8659 149.953 80.6804 150.506C82.3358 151.68 84.3151 152.311 86.3445 152.311C88.3739 152.311 90.3531 151.68 92.0085 150.506C95.5098 147.901 96.8532 143.209 100.09 140.278C103.642 137.061 108.843 136.461 112.853 133.855C114.987 132.444 116.726 130.511 117.905 128.24C119.084 125.97 119.664 123.436 119.591 120.878C119.52 118.995 119.082 117.072 119.591 115.26C120.1 113.448 121.392 112.125 121.83 110.385C122.38 108.247 121.464 104.278 120.731 102.181C119.774 99.2704 116.619 97.4384 113.667 97.2857Z" fill="#3E3E54"/>
<path d="M132.527 131.575C132.2 131.158 131.958 130.681 131.815 130.171C131.745 129.914 131.779 129.641 131.908 129.409C132.037 129.177 132.252 129.005 132.507 128.929C132.75 128.936 132.993 128.912 133.229 128.858C133.359 128.794 133.473 128.704 133.565 128.593C133.772 128.414 134.017 128.284 134.282 128.213C134.546 128.143 134.823 128.133 135.092 128.186C135.362 128.248 135.614 128.372 135.828 128.549C136.042 128.726 136.212 128.95 136.324 129.204C136.479 129.183 136.638 129.204 136.783 129.265C136.927 129.326 137.054 129.424 137.148 129.55C137.331 129.803 137.45 130.096 137.494 130.405C137.511 130.594 137.574 130.775 137.677 130.934C137.769 131.056 137.911 131.117 138.013 131.229C138.11 131.378 138.174 131.546 138.202 131.721C138.23 131.896 138.221 132.075 138.176 132.247L137.901 134.354C137.897 134.435 137.876 134.515 137.84 134.588C137.698 134.832 137.331 134.781 137.056 134.7C136.329 134.496 135.582 134.374 134.827 134.334C133.046 134.252 133.321 132.888 132.527 131.575Z" fill="url(#paint7_linear)"/>
<path d="M99.5707 240.012C99.5386 240.444 99.6011 240.878 99.754 241.284C100.253 242.403 101.79 242.678 103.153 242.75C105.804 242.884 108.46 242.829 111.102 242.587C111.712 242.592 112.306 242.395 112.792 242.027C113.035 241.735 113.156 241.36 113.129 240.98C113.103 240.601 112.931 240.247 112.649 239.991C112.053 239.45 111.339 239.057 110.563 238.841C109.786 238.628 109.064 238.249 108.446 237.732C107.824 237.039 107.502 236.127 107.55 235.197C107.55 234.281 107.672 233.376 107.55 232.47C107.551 232.39 107.534 232.312 107.5 232.239C107.467 232.167 107.418 232.103 107.357 232.052C107.242 231.989 107.111 231.96 106.98 231.971C105.281 231.92 101.087 231.218 99.8557 232.633C98.6242 234.047 99.5911 238.281 99.5707 240.012Z" fill="#3E3E54"/>
<path d="M61.7901 187.432C61.3902 187.167 60.9334 186.999 60.4568 186.944C59.7981 186.998 59.1773 187.274 58.696 187.727C56.5001 189.437 54.6047 191.501 53.0879 193.834C52.2533 195.096 51.49 196.755 52.0701 198.2C54.2787 198.699 56.6298 199.218 58.7163 198.2C59.4075 197.785 60.1248 197.414 60.8639 197.091C61.3027 196.951 61.7659 196.906 62.2235 196.956C62.6811 197.007 63.1229 197.154 63.5203 197.386C64.2837 197.824 65.0063 198.597 65.8511 198.485C66.3929 198.348 66.8687 198.024 67.1946 197.569C68.3956 196.124 69.8409 193.101 68.6806 191.3C67.5203 189.498 63.4491 188.358 61.7901 187.432Z" fill="#3E3E54"/>
<path d="M85.1282 243.157L112.782 242.709V301.924H29.3019V279.451H48.2126V264.826H74.2479V243.065L85.1282 243.157Z" fill="#314BCE"/>
<defs>
<linearGradient id="paint0_linear" x1="163.936" y1="178.191" x2="222.562" y2="178.191" gradientUnits="userSpaceOnUse">
<stop stop-opacity="0"/>
<stop offset="0.99"/>
</linearGradient>
<linearGradient id="paint1_linear" x1="15604.4" y1="8030.38" x2="10016.9" y2="12583.5" gradientUnits="userSpaceOnUse">
<stop stop-opacity="0"/>
<stop offset="0.99"/>
</linearGradient>
<linearGradient id="paint2_linear" x1="233.574" y1="165.529" x2="249.92" y2="165.529" gradientUnits="userSpaceOnUse">
<stop stop-color="#E5C5D5"/>
<stop offset="0.42" stop-color="#EAD4D1"/>
<stop offset="1" stop-color="#F0E9CB"/>
</linearGradient>
<linearGradient id="paint3_linear" x1="14901.6" y1="20947.7" x2="16572.6" y2="20088.2" gradientUnits="userSpaceOnUse">
<stop stop-opacity="0"/>
<stop offset="0.99"/>
</linearGradient>
<linearGradient id="paint4_linear" x1="2590" y1="2165.62" x2="2697.16" y2="2165.62" gradientUnits="userSpaceOnUse">
<stop stop-color="#E5C5D5"/>
<stop offset="0.42" stop-color="#EAD4D1"/>
<stop offset="1" stop-color="#F0E9CB"/>
</linearGradient>
<linearGradient id="paint5_linear" x1="3867.43" y1="274.616" x2="3181.94" y2="11676.4" gradientUnits="userSpaceOnUse">
<stop stop-opacity="0"/>
<stop offset="0.99"/>
</linearGradient>
<linearGradient id="paint6_linear" x1="1394.74" y1="2020.48" x2="1463.99" y2="2020.48" gradientUnits="userSpaceOnUse">
<stop stop-color="#E5C5D5"/>
<stop offset="0.42" stop-color="#EAD4D1"/>
<stop offset="1" stop-color="#F0E9CB"/>
</linearGradient>
<linearGradient id="paint7_linear" x1="1229.61" y1="1129.29" x2="1270.24" y2="1129.29" gradientUnits="userSpaceOnUse">
<stop stop-color="#E5C5D5"/>
<stop offset="0.42" stop-color="#EAD4D1"/>
<stop offset="1" stop-color="#F0E9CB"/>
</linearGradient>
</defs>
</svg>
