<svg width="162" height="36" viewBox="0 0 162 36" fill="none" xmlns="http://www.w3.org/2000/svg">
<g clip-path="url(#clip0)">
<path d="M27.676 4.49726C26.5922 4.49726 25.519 4.71078 24.5178 5.12563C23.5166 5.54047 22.6069 6.14851 21.8407 6.915L20.2507 8.505L18.6606 6.915C17.113 5.36746 15.014 4.49806 12.8253 4.49806C10.6367 4.49806 8.5377 5.36746 6.9901 6.915C5.4425 8.46254 4.57306 10.5614 4.57306 12.75C4.57306 14.9385 5.4425 17.0375 6.9901 18.585M35.3007 9.59197C35.7155 10.5932 35.929 11.6663 35.929 12.75C35.929 13.8337 35.7155 14.9068 35.3007 15.908C34.8858 16.9092 34.2777 17.8189 33.5112 18.585L31.9211 20.175L20.2507 31.845L14.4154 26.01" stroke="#334AC0" stroke-width="3" stroke-linecap="round" stroke-linejoin="round"/>
<path d="M63.8876 15.3C63.8876 13.83 63.5876 12.48 63.0475 11.22C62.5075 9.96 61.7575 8.88 60.8274 7.98C59.8674 7.08 58.7574 6.39 57.4973 5.88C56.2072 5.37 54.8272 5.1 53.3871 5.1H48.0469V25.5H53.3871C54.8272 25.5 56.2072 25.26 57.4973 24.75C58.7574 24.24 59.8674 23.52 60.8274 22.62C61.7575 21.72 62.5075 20.67 63.0475 19.41C63.5876 18.15 63.8876 16.8 63.8876 15.3ZM61.8475 15.3C61.8475 17.64 61.0075 19.59 59.3874 21.12C57.7673 22.65 55.7872 23.4 53.4471 23.4H50.147V7.2H53.4471C55.7872 7.2 57.7673 7.98 59.3874 9.48C61.0075 11.04 61.8475 12.99 61.8475 15.3Z" fill="currentColor"/>
<path d="M69.1809 33L78.3013 12.3H75.9612L72.181 21.15L67.9509 12.3H65.5508L71.071 23.34L66.6308 33H69.1809Z" fill="currentColor"/>
<path d="M89.3659 25.5H91.466V17.25C91.466 15.72 91.046 14.49 90.2659 13.56C89.8459 13.08 89.3659 12.72 88.7959 12.45C88.1959 12.18 87.4458 12.03 86.5158 12.03C85.5557 12.03 84.7457 12.3 84.0257 12.78C83.3356 13.23 82.7656 13.83 82.3456 14.58V12.3H80.2455V25.5H82.3456V19.98C82.3456 18.3 82.6456 16.98 83.2756 15.99C83.6357 15.45 84.0857 15 84.6557 14.67C85.1957 14.31 85.9458 14.16 86.8458 14.16C87.7458 14.16 88.3759 14.46 88.7659 15.06C89.1559 15.66 89.3659 16.41 89.3659 17.28V25.5Z" fill="currentColor"/>
<path d="M106.01 18.9C106.01 20.19 105.56 21.33 104.66 22.26C103.76 23.22 102.65 23.7 101.36 23.7C100.04 23.7 98.93 23.22 98.0299 22.26C97.1299 21.33 96.7099 20.19 96.7099 18.9C96.7099 17.64 97.1299 16.5 98.0299 15.54C98.93 14.58 100.04 14.1 101.36 14.1C102.65 14.1 103.76 14.58 104.66 15.54C105.56 16.5 106.01 17.64 106.01 18.9ZM108.11 25.5V12.3H106.01V14.58C105.89 14.4 105.74 14.25 105.62 14.1C104.36 12.72 102.83 12 101.03 12C99.2 12 97.6699 12.72 96.4099 14.1C95.2098 15.48 94.6098 17.07 94.6098 18.9C94.6098 20.76 95.2098 22.35 96.4099 23.7C97.6699 25.11 99.2 25.8 101.03 25.8C102.83 25.8 104.36 25.11 105.62 23.7C105.74 23.58 105.89 23.43 106.01 23.25V25.5H108.11Z" fill="currentColor"/>
<path d="M129.361 25.44H131.461V17.19C131.461 15.72 131.071 14.49 130.351 13.53C129.991 13.05 129.511 12.69 128.971 12.39C128.401 12.09 127.651 11.94 126.721 11.94C125.82 11.94 125.01 12.21 124.32 12.69C123.69 13.17 123.18 13.74 122.76 14.46C122.61 14.13 122.43 13.83 122.22 13.53C121.86 13.05 121.38 12.69 120.84 12.39C120.27 12.09 119.52 11.94 118.59 11.94C117.69 11.94 116.88 12.21 116.19 12.69C115.59 13.14 115.11 13.68 114.69 14.37V12.24H112.59V25.44H114.69V18.69C114.81 17.64 115.08 16.71 115.5 15.96C115.83 15.42 116.25 14.94 116.79 14.58C117.33 14.22 117.93 14.04 118.53 14.04C119.16 14.04 119.61 14.16 119.91 14.34C120.78 14.88 121.2 15.84 121.2 17.19V25.44H123.3V17.19C123.3 17.04 123.3 16.86 123.3 16.71C123.39 16.44 123.51 16.2 123.63 15.96C123.96 15.42 124.38 14.94 124.92 14.58C125.46 14.22 126.06 14.04 126.661 14.04C127.291 14.04 127.741 14.16 128.041 14.34C128.911 14.88 129.331 15.84 129.331 17.19L129.361 25.44Z" fill="currentColor"/>
<path d="M137.632 7.74C137.362 7.5 137.032 7.35 136.672 7.35C136.312 7.35 135.982 7.5 135.742 7.74C135.472 8.01 135.352 8.34 135.352 8.7C135.352 9.06 135.472 9.39 135.742 9.63C135.982 9.9 136.312 10.02 136.672 10.02C137.032 10.02 137.362 9.9 137.632 9.63C137.872 9.39 138.022 9.06 138.022 8.7C138.022 8.34 137.872 8.01 137.632 7.74ZM137.752 25.5V12.3H135.652V25.5H137.752Z" fill="currentColor"/>
<path d="M144.458 25.5V3H142.357V25.5H144.458Z" fill="currentColor"/>
<path d="M150.63 33L159.75 12.3H157.41L153.63 21.15L149.4 12.3H146.999L152.52 23.34L148.08 33H150.63Z" fill="currentColor"/>
</g>
<defs>
<clipPath id="clip0">
<rect width="162" height="36" fill="white"/>
</clipPath>
</defs>
</svg>
