<svg width="210" height="48" viewBox="0 0 210 48" fill="none" xmlns="http://www.w3.org/2000/svg">
<path d="M33.9013 5.99635C32.4563 5.99635 31.0254 6.28104 29.6904 6.83417C28.3554 7.38729 27.1425 8.19801 26.121 9.22L24.0009 11.34L21.8808 9.22C19.8173 7.15662 17.0186 5.99742 14.1005 5.99742C11.1823 5.99742 8.3836 7.15662 6.32013 9.22C4.25666 11.2834 3.09742 14.0819 3.09742 17C3.09742 19.9181 4.25666 22.7166 6.32013 24.78M44.0675 12.7893C44.6207 14.1242 44.9054 15.555 44.9054 17C44.9054 18.445 44.6207 19.8758 44.0675 21.2107C43.5144 22.5456 42.7036 23.7585 41.6816 24.78L39.5615 26.9L24.0009 42.46L16.2205 34.68" stroke="#334AC0" stroke-width="4" stroke-linecap="round" stroke-linejoin="round"/>
<path d="M82.1834 20.4C82.1834 18.44 81.7834 16.64 81.0634 14.96C80.3434 13.28 79.3433 11.84 78.1033 10.64C76.8232 9.44 75.3431 8.52 73.6631 7.84C71.943 7.16 70.1029 6.8 68.1828 6.8H61.0625V34H68.1828C70.1029 34 71.943 33.68 73.6631 33C75.3431 32.32 76.8232 31.36 78.1033 30.16C79.3433 28.96 80.3434 27.56 81.0634 25.88C81.7834 24.2 82.1834 22.4 82.1834 20.4ZM79.4633 20.4C79.4633 23.52 78.3433 26.12 76.1832 28.16C74.0231 30.2 71.383 31.2 68.2629 31.2H63.8627V9.6H68.2629C71.383 9.6 74.0231 10.64 76.1832 12.64C78.3433 14.72 79.4633 17.32 79.4633 20.4Z" fill="black"/>
<path d="M89.2412 44L101.402 16.4H98.2816L93.2414 28.2L87.6012 16.4H84.401L91.7613 31.12L85.8411 44H89.2412Z" fill="black"/>
<path d="M116.155 34H118.955V23C118.955 20.96 118.395 19.32 117.355 18.08C116.795 17.44 116.155 16.96 115.395 16.6C114.594 16.24 113.594 16.04 112.354 16.04C111.074 16.04 109.994 16.4 109.034 17.04C108.114 17.64 107.354 18.44 106.794 19.44V16.4H103.994V34H106.794V26.64C106.794 24.4 107.194 22.64 108.034 21.32C108.514 20.6 109.114 20 109.874 19.56C110.594 19.08 111.594 18.88 112.794 18.88C113.994 18.88 114.834 19.28 115.355 20.08C115.875 20.88 116.155 21.88 116.155 23.04V34Z" fill="black"/>
<path d="M138.347 25.2C138.347 26.92 137.747 28.44 136.547 29.68C135.347 30.96 133.867 31.6 132.147 31.6C130.387 31.6 128.907 30.96 127.707 29.68C126.507 28.44 125.947 26.92 125.947 25.2C125.947 23.52 126.507 22 127.707 20.72C128.907 19.44 130.387 18.8 132.147 18.8C133.867 18.8 135.347 19.44 136.547 20.72C137.747 22 138.347 23.52 138.347 25.2ZM141.147 34V16.4H138.347V19.44C138.187 19.2 137.987 19 137.827 18.8C136.147 16.96 134.107 16 131.707 16C129.267 16 127.227 16.96 125.546 18.8C123.946 20.64 123.146 22.76 123.146 25.2C123.146 27.68 123.946 29.8 125.546 31.6C127.227 33.48 129.267 34.4 131.707 34.4C134.107 34.4 136.147 33.48 137.827 31.6C137.987 31.44 138.187 31.24 138.347 31V34H141.147Z" fill="black"/>
<path d="M169.481 33.92H172.281V22.92C172.281 20.96 171.761 19.32 170.801 18.04C170.321 17.4 169.681 16.92 168.961 16.52C168.201 16.12 167.201 15.92 165.961 15.92C164.761 15.92 163.681 16.28 162.761 16.92C161.921 17.56 161.24 18.32 160.68 19.28C160.48 18.84 160.24 18.44 159.96 18.04C159.48 17.4 158.84 16.92 158.12 16.52C157.36 16.12 156.36 15.92 155.12 15.92C153.92 15.92 152.84 16.28 151.92 16.92C151.12 17.52 150.48 18.24 149.92 19.16V16.32H147.12V33.92H149.92V24.92C150.08 23.52 150.44 22.28 151 21.28C151.44 20.56 152 19.92 152.72 19.44C153.44 18.96 154.24 18.72 155.04 18.72C155.88 18.72 156.48 18.88 156.88 19.12C158.04 19.84 158.6 21.12 158.6 22.92V33.92H161.4V22.92C161.4 22.72 161.4 22.48 161.4 22.28C161.52 21.92 161.68 21.6 161.841 21.28C162.281 20.56 162.841 19.92 163.561 19.44C164.281 18.96 165.081 18.72 165.881 18.72C166.721 18.72 167.321 18.88 167.721 19.12C168.881 19.84 169.441 21.12 169.441 22.92L169.481 33.92Z" fill="black"/>
<path d="M180.509 10.32C180.149 10 179.709 9.8 179.229 9.8C178.749 9.8 178.309 10 177.989 10.32C177.629 10.68 177.469 11.12 177.469 11.6C177.469 12.08 177.629 12.52 177.989 12.84C178.309 13.2 178.749 13.36 179.229 13.36C179.709 13.36 180.149 13.2 180.509 12.84C180.829 12.52 181.029 12.08 181.029 11.6C181.029 11.12 180.829 10.68 180.509 10.32ZM180.669 34V16.4H177.869V34H180.669Z" fill="black"/>
<path d="M189.61 34V4H186.81V34H189.61Z" fill="black"/>
<path d="M197.84 44L210 16.4H206.88L201.84 28.2L196.199 16.4H192.999L200.36 31.12L194.439 44H197.84Z" fill="black"/>
</svg>
