<svg width="192" height="60" viewBox="0 0 192 60" fill="none" xmlns="http://www.w3.org/2000/svg">
<rect width="192" height="60" rx="5" fill="#EDF0FC"/>
<path d="M42.426 16.4973C41.3422 16.4973 40.269 16.7108 39.2678 17.1256C38.2666 17.5405 37.3569 18.1485 36.5907 18.915L35.0007 20.505L33.4106 18.915C31.863 17.3675 29.764 16.4981 27.5753 16.4981C25.3867 16.4981 23.2877 17.3675 21.7401 18.915C20.1925 20.4625 19.3231 22.5614 19.3231 24.75C19.3231 26.9385 20.1925 29.0375 21.7401 30.585M50.0507 21.592C50.4655 22.5932 50.679 23.6663 50.679 24.75C50.679 25.8337 50.4655 26.9068 50.0507 27.908C49.6358 28.9092 49.0277 29.8189 48.2612 30.585L46.6711 32.175L35.0007 43.845L29.1654 38.01" stroke="#334AC0" stroke-width="3" stroke-linecap="round" stroke-linejoin="round"/>
<path d="M78.6376 27.3C78.6376 25.83 78.3376 24.48 77.7975 23.22C77.2575 21.96 76.5075 20.88 75.5774 19.98C74.6174 19.08 73.5074 18.39 72.2473 17.88C70.9572 17.37 69.5772 17.1 68.1371 17.1H62.7969V37.5H68.1371C69.5772 37.5 70.9572 37.26 72.2473 36.75C73.5074 36.24 74.6174 35.52 75.5774 34.62C76.5075 33.72 77.2575 32.67 77.7975 31.41C78.3376 30.15 78.6376 28.8 78.6376 27.3ZM76.5975 27.3C76.5975 29.64 75.7575 31.59 74.1374 33.12C72.5173 34.65 70.5372 35.4 68.1971 35.4H64.897V19.2H68.1971C70.5372 19.2 72.5173 19.98 74.1374 21.48C75.7575 23.04 76.5975 24.99 76.5975 27.3Z" fill="black"/>
<path d="M83.9309 45L93.0513 24.3H90.7112L86.931 33.15L82.7009 24.3H80.3008L85.821 35.34L81.3808 45H83.9309Z" fill="black"/>
<path d="M104.116 37.5H106.216V29.25C106.216 27.72 105.796 26.49 105.016 25.56C104.596 25.08 104.116 24.72 103.546 24.45C102.946 24.18 102.196 24.03 101.266 24.03C100.306 24.03 99.4957 24.3 98.7757 24.78C98.0856 25.23 97.5156 25.83 97.0956 26.58V24.3H94.9955V37.5H97.0956V31.98C97.0956 30.3 97.3956 28.98 98.0256 27.99C98.3857 27.45 98.8357 27 99.4057 26.67C99.9457 26.31 100.696 26.16 101.596 26.16C102.496 26.16 103.126 26.46 103.516 27.06C103.906 27.66 104.116 28.41 104.116 29.28V37.5Z" fill="black"/>
<path d="M120.76 30.9C120.76 32.19 120.31 33.33 119.41 34.26C118.51 35.22 117.4 35.7 116.11 35.7C114.79 35.7 113.68 35.22 112.78 34.26C111.88 33.33 111.46 32.19 111.46 30.9C111.46 29.64 111.88 28.5 112.78 27.54C113.68 26.58 114.79 26.1 116.11 26.1C117.4 26.1 118.51 26.58 119.41 27.54C120.31 28.5 120.76 29.64 120.76 30.9ZM122.86 37.5V24.3H120.76V26.58C120.64 26.4 120.49 26.25 120.37 26.1C119.11 24.72 117.58 24 115.78 24C113.95 24 112.42 24.72 111.16 26.1C109.96 27.48 109.36 29.07 109.36 30.9C109.36 32.76 109.96 34.35 111.16 35.7C112.42 37.11 113.95 37.8 115.78 37.8C117.58 37.8 119.11 37.11 120.37 35.7C120.49 35.58 120.64 35.43 120.76 35.25V37.5H122.86Z" fill="black"/>
<path d="M144.111 37.44H146.211V29.19C146.211 27.72 145.821 26.49 145.101 25.53C144.741 25.05 144.261 24.69 143.721 24.39C143.151 24.09 142.401 23.94 141.471 23.94C140.57 23.94 139.76 24.21 139.07 24.69C138.44 25.17 137.93 25.74 137.51 26.46C137.36 26.13 137.18 25.83 136.97 25.53C136.61 25.05 136.13 24.69 135.59 24.39C135.02 24.09 134.27 23.94 133.34 23.94C132.44 23.94 131.63 24.21 130.94 24.69C130.34 25.14 129.86 25.68 129.44 26.37V24.24H127.34V37.44H129.44V30.69C129.56 29.64 129.83 28.71 130.25 27.96C130.58 27.42 131 26.94 131.54 26.58C132.08 26.22 132.68 26.04 133.28 26.04C133.91 26.04 134.36 26.16 134.66 26.34C135.53 26.88 135.95 27.84 135.95 29.19V37.44H138.05V29.19C138.05 29.04 138.05 28.86 138.05 28.71C138.14 28.44 138.26 28.2 138.38 27.96C138.71 27.42 139.13 26.94 139.67 26.58C140.21 26.22 140.81 26.04 141.411 26.04C142.041 26.04 142.491 26.16 142.791 26.34C143.661 26.88 144.081 27.84 144.081 29.19L144.111 37.44Z" fill="black"/>
<path d="M152.382 19.74C152.112 19.5 151.782 19.35 151.422 19.35C151.062 19.35 150.732 19.5 150.492 19.74C150.222 20.01 150.102 20.34 150.102 20.7C150.102 21.06 150.222 21.39 150.492 21.63C150.732 21.9 151.062 22.02 151.422 22.02C151.782 22.02 152.112 21.9 152.382 21.63C152.622 21.39 152.772 21.06 152.772 20.7C152.772 20.34 152.622 20.01 152.382 19.74ZM152.502 37.5V24.3H150.402V37.5H152.502Z" fill="black"/>
<path d="M159.208 37.5V15H157.107V37.5H159.208Z" fill="black"/>
<path d="M165.38 45L174.5 24.3H172.16L168.38 33.15L164.15 24.3H161.749L167.27 35.34L162.83 45H165.38Z" fill="black"/>
</svg>
